<?xml version="1.0" encoding="utf-8"?>
<!-- Generator: Adobe Illustrator 22.0.0, SVG Export Plug-In . SVG Version: 6.00 Build 0)  -->
<svg version="1.1" id="레이어_1" xmlns="http://www.w3.org/2000/svg" xmlns:xlink="http://www.w3.org/1999/xlink" x="0px"
	 y="0px" viewBox="0 0 50 50" style="enable-background:new 0 0 50 50;" xml:space="preserve">
<style type="text/css">
	.st0{opacity:0.8;}
	.st1{fill:#FFFFFF;}
	.st2{fill:#040000;}
</style>
<g class="st0">
	<rect class="st1" width="50" height="50"/>
</g>
<path class="st2" d="M25.7,25L37,13.7c0.2-0.2,0.2-0.5,0-0.7s-0.5-0.2-0.7,0L25,24.3L13.7,13c-0.2-0.2-0.5-0.2-0.7,0s-0.2,0.5,0,0.7
	L24.3,25L13,36.3c-0.2,0.2-0.2,0.5,0,0.7c0.1,0.1,0.2,0.1,0.4,0.1s0.3,0,0.4-0.1L25,25.7L36.3,37c0.1,0.1,0.2,0.1,0.4,0.1
	s0.3,0,0.4-0.1c0.2-0.2,0.2-0.5,0-0.7L25.7,25z"/>
</svg>
