<?xml version="1.0" encoding="utf-8"?>
<!-- Generator: Adobe Illustrator 22.0.0, SVG Export Plug-In . SVG Version: 6.00 Build 0)  -->
<svg version="1.1" id="레이어_1" xmlns="http://www.w3.org/2000/svg" xmlns:xlink="http://www.w3.org/1999/xlink" x="0px"
	 y="0px" viewBox="0 0 60 47.5" style="enable-background:new 0 0 60 47.5;" xml:space="preserve">
<style type="text/css">
	.st0{fill:#767777;}
</style>
<g>
	<path class="st0" d="M59,0H1C0.5,0,0,0.5,0,1v45.5c0,0.6,0.5,1,1,1H59c0.6,0,1-0.5,1-1V1C60,0.5,59.5,0,59,0L59,0z M57.9,45.5H2.1
		V2.1h55.9V45.5z M57.9,45.5"/>
	<path class="st0" d="M16.6,22.9c3.2,0,5.8-2.6,5.8-5.8c0-3.2-2.6-5.8-5.8-5.8c-3.2,0-5.8,2.6-5.8,5.8
		C10.8,20.3,13.4,22.9,16.6,22.9L16.6,22.9z M16.6,13.4c2,0,3.7,1.7,3.7,3.7c0,2-1.7,3.7-3.7,3.7s-3.7-1.7-3.7-3.7
		C12.9,15.1,14.5,13.4,16.6,13.4L16.6,13.4z M16.6,13.4"/>
	<path class="st0" d="M7.2,41.4c0.2,0,0.5-0.1,0.7-0.3l16.9-14.9l10.7,10.7c0.4,0.4,1.1,0.4,1.5,0c0.4-0.4,0.4-1.1,0-1.5l-5-5
		l9.5-10.4l11.6,10.7c0.4,0.4,1.1,0.4,1.5-0.1c0.4-0.4,0.4-1.1-0.1-1.5L42.1,17.9c-0.2-0.2-0.5-0.3-0.7-0.3c-0.3,0-0.5,0.1-0.7,0.3
		L30.5,29l-4.9-4.9c-0.4-0.4-1-0.4-1.4,0L6.6,39.6c-0.4,0.4-0.5,1-0.1,1.5C6.7,41.3,7,41.4,7.2,41.4L7.2,41.4z M7.2,41.4"/>
</g>
</svg>
