<?xml version="1.0" encoding="utf-8"?>
<!-- Generator: Adobe Illustrator 22.0.0, SVG Export Plug-In . SVG Version: 6.00 Build 0)  -->
<svg version="1.1" id="레이어_1" xmlns="http://www.w3.org/2000/svg" xmlns:xlink="http://www.w3.org/1999/xlink" x="0px"
	 y="0px" viewBox="0 0 235 54.6" style="enable-background:new 0 0 235 54.6;" xml:space="preserve">
<style type="text/css">
	.st0{fill:#606060;}
	.st1{fill:#8F8F8F;}
	.st2{fill:#FFFFFF;}
</style>
<path class="st0" d="M9.1,39.7L0,11h7.4l5.4,18.9l5-18.9h7.3l4.8,18.9L35.4,11h7.5l-9.2,28.8h-7.3l-5-18.5l-4.9,18.5H9.1z"/>
<g>
	<path class="st1" d="M45.1,11.3v29c0,3.2,2.6,5.8,5.8,5.8h28.7l14.7,8.3c0.1,0.1,0.2,0.1,0.3,0.1c0.3,0,0.5-0.2,0.5-0.5l-2.8-7.9
		h9.6c0,0,8.3,0,8.3,0c3.2,0,5.8-2.6,5.8-5.8v-29c0-3.2-2.6-5.8-5.8-5.8H50.9C47.7,5.6,45.1,8.2,45.1,11.3z"/>
	<g>
		<path class="st2" d="M49.1,24.9c0-2.5,0.6-5,1.9-7.3c1.2-2.4,3-4.2,5.3-5.4c2.3-1.2,4.8-1.9,7.7-1.9c4.4,0,7.9,1.4,10.7,4.2
			c2.8,2.8,4.2,6.4,4.2,10.7c0,4.4-1.4,8-4.2,10.8c-2.8,2.9-6.3,4.3-10.6,4.3c-2.6,0-5.2-0.6-7.5-1.8c-2.4-1.2-4.2-2.9-5.5-5.2
			S49.1,28.2,49.1,24.9z M56.9,25.3c0,2.9,0.7,5,2,6.6c1.4,1.5,3,2.3,5,2.3c2,0,3.7-0.8,5-2.3c1.3-1.5,2-3.7,2-6.6
			c0-2.8-0.7-5-2-6.5c-1.3-1.5-3-2.3-5-2.3c-2,0-3.7,0.8-5,2.3C57.6,20.3,56.9,22.5,56.9,25.3z"/>
		<path class="st2" d="M82.3,24.9c0-2.5,0.6-5,1.9-7.3c1.2-2.4,3-4.2,5.3-5.4c2.3-1.2,4.8-1.9,7.7-1.9c4.4,0,7.9,1.4,10.7,4.2
			c2.8,2.8,4.2,6.4,4.2,10.7c0,4.4-1.4,8-4.2,10.8c-2.8,2.9-6.3,4.3-10.6,4.3c-2.6,0-5.2-0.6-7.5-1.8c-2.4-1.2-4.2-2.9-5.5-5.2
			C83,31,82.3,28.2,82.3,24.9z M90.1,25.3c0,2.9,0.7,5,2,6.6c1.4,1.5,3,2.3,5,2.3c2,0,3.7-0.8,5-2.3c1.3-1.5,2-3.7,2-6.6
			c0-2.8-0.7-5-2-6.5c-1.3-1.5-3-2.3-5-2.3c-2,0-3.7,0.8-5,2.3C90.8,20.3,90.1,22.5,90.1,25.3z"/>
	</g>
</g>
<path class="st0" d="M127.1,19.7l-6.9-1.2c0.8-2.8,2.1-4.8,4-6.2c1.9-1.3,4.7-2,8.5-2c3.4,0,5.9,0.4,7.6,1.2
	c1.7,0.8,2.8,1.8,3.5,3.1c0.7,1.2,1,3.5,1,6.8l-0.1,8.9c0,2.5,0.1,4.4,0.4,5.6c0.2,1.2,0.7,2.5,1.4,3.9h-7.5
	c-0.2-0.5-0.4-1.3-0.7-2.2c-0.1-0.5-0.2-0.7-0.3-0.9c-1.3,1.3-2.7,2.2-4.2,2.8c-1.5,0.6-3.1,0.9-4.7,0.9c-3,0-5.3-0.8-7-2.4
	c-1.7-1.6-2.6-3.6-2.6-6.1c0-1.6,0.4-3.1,1.2-4.3c0.8-1.3,1.9-2.2,3.3-2.9c1.4-0.7,3.4-1.3,6.1-1.8c3.6-0.7,6-1.3,7.4-1.9v-0.8
	c0-1.5-0.4-2.5-1.1-3.1c-0.7-0.6-2.1-0.9-4.1-0.9c-1.4,0-2.4,0.3-3.2,0.8C128.2,17.5,127.6,18.4,127.1,19.7z M137.3,25.9
	c-1,0.3-2.5,0.7-4.6,1.2c-2.1,0.5-3.5,0.9-4.1,1.3c-1,0.7-1.5,1.6-1.5,2.7c0,1.1,0.4,2,1.2,2.8c0.8,0.8,1.8,1.2,3,1.2
	c1.4,0,2.7-0.5,3.9-1.4c0.9-0.7,1.5-1.5,1.8-2.5c0.2-0.7,0.3-1.9,0.3-3.7V25.9z"/>
<path class="st0" d="M157,0v14.6c2.5-2.9,5.4-4.3,8.8-4.3c1.8,0,3.3,0.3,4.7,1s2.5,1.5,3.2,2.5c0.7,1,1.2,2.1,1.5,3.4
	c0.3,1.2,0.4,3.1,0.4,5.7v16.9h-7.6V24.5c0-3-0.1-4.9-0.4-5.7c-0.3-0.8-0.8-1.5-1.5-1.9c-0.7-0.5-1.6-0.7-2.8-0.7
	c-1.3,0-2.4,0.3-3.4,0.9c-1,0.6-1.7,1.5-2.2,2.8c-0.5,1.2-0.7,3.1-0.7,5.5v14.4h-7.6V0H157z"/>
<path class="st0" d="M186.3,19.7l-6.9-1.2c0.8-2.8,2.1-4.8,4-6.2c1.9-1.3,4.7-2,8.5-2c3.4,0,5.9,0.4,7.6,1.2
	c1.7,0.8,2.8,1.8,3.5,3.1c0.7,1.2,1,3.5,1,6.8l-0.1,8.9c0,2.5,0.1,4.4,0.4,5.6c0.2,1.2,0.7,2.5,1.4,3.9h-7.5
	c-0.2-0.5-0.4-1.3-0.7-2.2c-0.1-0.5-0.2-0.7-0.3-0.9c-1.3,1.3-2.7,2.2-4.2,2.8c-1.5,0.6-3.1,0.9-4.7,0.9c-3,0-5.3-0.8-7-2.4
	c-1.7-1.6-2.6-3.6-2.6-6.1c0-1.6,0.4-3.1,1.2-4.3c0.8-1.3,1.9-2.2,3.3-2.9c1.4-0.7,3.4-1.3,6.1-1.8c3.6-0.7,6-1.3,7.4-1.9v-0.8
	c0-1.5-0.4-2.5-1.1-3.1c-0.7-0.6-2.1-0.9-4.1-0.9c-1.4,0-2.4,0.3-3.2,0.8C187.4,17.5,186.7,18.4,186.3,19.7z M196.5,25.9
	c-1,0.3-2.5,0.7-4.6,1.2c-2.1,0.5-3.5,0.9-4.1,1.3c-1,0.7-1.5,1.6-1.5,2.7c0,1.1,0.4,2,1.2,2.8c0.8,0.8,1.8,1.2,3,1.2
	c1.4,0,2.7-0.5,3.9-1.4c0.9-0.7,1.5-1.5,1.8-2.5c0.2-0.7,0.3-1.9,0.3-3.7V25.9z"/>
<path class="st0" d="M235,39.7h-7.6V25c0-3.1-0.2-5.1-0.5-6c-0.3-0.9-0.9-1.6-1.6-2.1c-0.7-0.5-1.6-0.8-2.6-0.8
	c-1.3,0-2.5,0.4-3.5,1.1c-1,0.7-1.8,1.7-2.2,2.9c-0.4,1.2-0.6,3.4-0.6,6.6v13h-7.6V11h7.1v4.2c2.5-3.3,5.7-4.9,9.5-4.9
	c1.7,0,3.2,0.3,4.6,0.9c1.4,0.6,2.4,1.4,3.2,2.3c0.7,0.9,1.2,2,1.5,3.2c0.3,1.2,0.4,2.9,0.4,5.1V39.7z"/>
</svg>
