<?xml version="1.0" encoding="utf-8"?>
<!-- Generator: Adobe Illustrator 22.1.0, SVG Export Plug-In . SVG Version: 6.00 Build 0)  -->
<svg version="1.1" id="레이어_1" xmlns="http://www.w3.org/2000/svg" xmlns:xlink="http://www.w3.org/1999/xlink" x="0px"
	 y="0px" viewBox="0 0 52.7 24.5" style="enable-background:new 0 0 52.7 24.5;" xml:space="preserve">
<path d="M34.8,3.7L34.8,3.7c-2.2-2.2-5.2-3.5-8.5-3.5c-6.6,0-12,5.4-12,12c0,3.3,1.3,6.3,3.5,8.5l0,0c2.2,2.2,5.2,3.5,8.5,3.5
	c6.6,0,12-5.4,12-12C38.4,8.9,37,5.9,34.8,3.7z M26.3,1.2c2.6,0,5.1,0.9,7.1,2.6L17.9,19.3c-1.7-2-2.6-4.5-2.6-7.1
	C15.3,6.2,20.3,1.2,26.3,1.2z"/>
</svg>
