<?xml version="1.0" encoding="utf-8"?>
<!-- Generator: Adobe Illustrator 22.1.0, SVG Export Plug-In . SVG Version: 6.00 Build 0)  -->
<svg version="1.1" id="레이어_1" xmlns="http://www.w3.org/2000/svg" xmlns:xlink="http://www.w3.org/1999/xlink" x="0px"
	 y="0px" viewBox="0 0 52.7 24.5" style="enable-background:new 0 0 52.7 24.5;" xml:space="preserve">
<path d="M51.7,1.9v20.7H1V1.9H51.7 M52.7,0.9H0v22.7h52.7V0.9L52.7,0.9z"/>
<polygon points="44,14.1 41.7,11.2 46.3,11.2 "/>
<g>
	<path d="M12.1,14H8.5l-1,3H6.5l3.3-9.5h1.2l3.3,9.5H13L12.1,14z M11.8,13.1l-0.5-1.5c-0.4-1.1-0.7-2.1-1-3.2h-0.1
		c-0.3,1.1-0.6,2.1-1,3.2l-0.5,1.5H11.8z"/>
	<path d="M15.6,7.5h2.8c1.9,0,3.3,0.7,3.3,2.3c0,0.9-0.5,1.8-1.4,2.1v0.1c1.2,0.2,2,1,2,2.3c0,1.9-1.5,2.8-3.6,2.8h-3V7.5z
		 M18.2,11.6c1.7,0,2.4-0.6,2.4-1.6c0-1.2-0.8-1.6-2.3-1.6h-1.5v3.2H18.2z M18.4,16.1c1.7,0,2.7-0.6,2.7-2c0-1.2-1-1.8-2.7-1.8h-1.7
		v3.7H18.4z"/>
	<path d="M23.8,12.2c0-3.1,1.8-4.9,4.2-4.9c1.2,0,2,0.6,2.6,1.2L30,9.2c-0.5-0.5-1.1-0.9-2-0.9c-1.9,0-3.1,1.5-3.1,4
		c0,2.5,1.2,4,3,4c0.9,0,1.6-0.4,2.2-1.1l0.6,0.7c-0.7,0.9-1.7,1.4-2.9,1.4C25.6,17.2,23.8,15.3,23.8,12.2z"/>
</g>
</svg>
