<?xml version="1.0" encoding="utf-8"?>
<!-- Generator: Adobe Illustrator 22.1.0, SVG Export Plug-In . SVG Version: 6.00 Build 0)  -->
<svg version="1.1" id="레이어_1" xmlns="http://www.w3.org/2000/svg" xmlns:xlink="http://www.w3.org/1999/xlink" x="0px"
	 y="0px" viewBox="0 0 52.7 24.5" style="enable-background:new 0 0 52.7 24.5;" xml:space="preserve">
<g>
	<g>
		<rect x="46.6" y="0.8" width="1" height="22.7"/>
		<rect x="3.9" y="0.8" width="1" height="22.7"/>
	</g>
	<g>
		<path d="M19.2,13.8h-3.5l-1,3h-1.1l3.3-9.5H18l3.3,9.5h-1.1L19.2,13.8z M18.9,13l-0.5-1.5c-0.4-1.1-0.7-2.1-1-3.2h-0.1
			c-0.3,1.1-0.6,2.1-1,3.2L15.9,13H18.9z"/>
		<path d="M22.8,7.3h2.8c1.9,0,3.3,0.7,3.3,2.3c0,0.9-0.5,1.8-1.4,2.1v0.1c1.2,0.2,2,1,2,2.3c0,1.9-1.5,2.8-3.6,2.8h-3V7.3z
			 M25.3,11.4c1.7,0,2.4-0.6,2.4-1.6c0-1.2-0.8-1.6-2.3-1.6h-1.5v3.2H25.3z M25.6,16c1.7,0,2.7-0.6,2.7-2c0-1.2-1-1.8-2.7-1.8h-1.7
			V16H25.6z"/>
		<path d="M31,12.1c0-3.1,1.8-4.9,4.2-4.9c1.2,0,2,0.6,2.6,1.2L37.1,9c-0.5-0.5-1.1-0.9-2-0.9c-1.9,0-3.1,1.5-3.1,4c0,2.5,1.2,4,3,4
			c0.9,0,1.6-0.4,2.2-1.1l0.6,0.7C37.2,16.5,36.3,17,35,17C32.7,17,31,15.2,31,12.1z"/>
	</g>
</g>
</svg>
