<?xml version="1.0" encoding="utf-8"?>
<!-- Generator: Adobe Illustrator 22.1.0, SVG Export Plug-In . SVG Version: 6.00 Build 0)  -->
<svg version="1.1" id="레이어_1" xmlns="http://www.w3.org/2000/svg" xmlns:xlink="http://www.w3.org/1999/xlink" x="0px"
	 y="0px" viewBox="0 0 400 128.6" style="enable-background:new 0 0 400 128.6;" xml:space="preserve">
<style type="text/css">
	.st0{fill:#FFFFFF;}
</style>
<g>
	<g>
		<rect x="91.6" y="46.6" class="st0" width="6.2" height="35.7"/>
		<path class="st0" d="M0,24.5v79.1h160.6c-9.8-10.3-15.9-24.2-15.9-39.6s6.1-29.3,15.9-39.6L0,24.5L0,24.5z M25.9,34.8h31l12,29.1
			H53.6l-7.5-18.1h-9.5l-7.4,18.1H14L25.9,34.8z M70.5,80.3h-9.4v13.1H47.5V80.3h-12v13.1H21.9V80.3h-9.4V69.2h58V80.3z M113.8,93
			H75.4V82.3h3.4V46.6h-3.4V35.8h38.4v10.7h-3.4v35.7h3.4V93z M135.1,93.7h-14.9v-26h-6.7V56.2h6.7V34.5h14.9V93.7z"/>
	</g>
	<path class="st0" d="M327.6,107.5L327.6,107.5L327.6,107.5z"/>
	<path class="st0" d="M337.2,107.5L337.2,107.5L337.2,107.5z"/>
	<polygon class="st0" points="232.7,89.3 182.3,38.9 222.1,38.9 222.1,64 232.7,64 232.7,38.9 232.7,28.4 222.1,28.4 167.3,28.4 
		167.3,38.9 167.4,38.9 217.7,89.3 177.9,89.3 177.9,64.2 167.3,64.2 167.3,89.3 167.3,99.8 177.9,99.8 232.7,99.8 	"/>
	<path class="st0" d="M200,121.4c-31.6,0-57.3-25.7-57.3-57.3S168.4,6.8,200,6.8s57.3,25.7,57.3,57.3S231.6,121.4,200,121.4z
		 M200,16.4c-26.3,0-47.7,21.4-47.7,47.7s21.4,47.7,47.7,47.7s47.7-21.4,47.7-47.7S226.3,16.4,200,16.4z"/>
	<g>
		<path class="st0" d="M239.4,24.5c9.8,10.3,15.9,24.2,15.9,39.6s-6.1,29.3-15.9,39.6H400V24.5H239.4z M371.9,34.5h14.9V75h-14.9
			V34.5z M310.3,34.5h12.2v40.1h-12.2V34.5z M292,47.9h4V34.5h11.7v40.1H296V57.9h-4V47.9z M263.1,60.1V46.6c0-3.4,1-6.1,3.1-8.1
			c2-2,4.7-3.1,8.1-3.1h5.4c3.4,0,6.1,1,8.1,3.1c2,2,3.1,4.7,3.1,8.1v13.5c0,3.4-1,6.1-3.1,8.1c-2,2-4.7,3.1-8.1,3.1h-5.4
			c-3.4,0-6.1-1-8.1-3.1C264.1,66.2,263.1,63.5,263.1,60.1z M323.1,93.7h-56V74.6H282v9.1h41.1V93.7z M327.8,45.2v-10h37.7v10.1
			h-8.4l9,24.4h-13.4l-5.6-16.2l-5.7,16.2h-13.7l9-24.4h-8.9V45.2z M387.5,93.7h-56V73.9h14.9v9.7h41.1V93.7z"/>
		<path class="st0" d="M276.2,61.9h2.1c0.4,0,0.8-0.2,1.1-0.5c0.3-0.3,0.5-0.7,0.5-1.1V46.6c0-0.4-0.2-0.8-0.5-1.1s-0.7-0.5-1.1-0.5
			h-2.1c-0.4,0-0.8,0.2-1.1,0.5c-0.3,0.3-0.5,0.7-0.5,1.1v13.8c0,0.4,0.2,0.8,0.5,1.1C275.4,61.7,275.8,61.9,276.2,61.9z"/>
	</g>
</g>
</svg>
