<?xml version="1.0" encoding="utf-8"?>
<!-- Generator: Adobe Illustrator 22.1.0, SVG Export Plug-In . SVG Version: 6.00 Build 0)  -->
<svg version="1.1" id="레이어_1" xmlns="http://www.w3.org/2000/svg" xmlns:xlink="http://www.w3.org/1999/xlink" x="0px"
	 y="0px" viewBox="0 0 962 231.1" style="enable-background:new 0 0 962 231.1;" xml:space="preserve">
<style type="text/css">
	.st0{fill:#FFFFFF;}
</style>
<path class="st0" d="M90.7,160.2L57.9,56.4h26.7l19.4,68l17.9-68h26.5l17.3,68l19.8-68h27.1l-33.3,103.7h-26.4l-17.9-66.7
	l-17.6,66.7H90.7z"/>
<g>
	<path class="st0" d="M288.5,76.5c-7.2,0-13.2,2.7-18.1,8.2s-7.3,13.3-7.3,23.6c0,10.3,2.4,18.2,7.3,23.6s10.9,8.2,18.1,8.2
		c7.2,0,13.2-2.7,18-8.2c4.8-5.5,7.3-13.4,7.3-23.8c0-10.2-2.4-18-7.3-23.4C301.6,79.2,295.6,76.5,288.5,76.5z"/>
	<path class="st0" d="M408.1,76.5c-7.2,0-13.2,2.7-18.1,8.2s-7.3,13.3-7.3,23.6c0,10.3,2.4,18.2,7.3,23.6s10.9,8.2,18.1,8.2
		c7.2,0,13.2-2.7,18-8.2c4.8-5.5,7.3-13.4,7.3-23.8c0-10.2-2.4-18-7.3-23.4C421.3,79.2,415.3,76.5,408.1,76.5z"/>
	<path class="st0" d="M455.4,37.1H241.2c-11.4,0-20.7,9.3-20.7,20.7v104.7c0,11.4,9.3,20.7,20.7,20.7h103.5l53,30
		c0.3,0.3,0.7,0.4,1.2,0.4c1,0,1.8-0.8,1.8-1.8l-10-28.6h34.7c0,0,30,0,30,0c11.4,0,20.7-9.3,20.7-20.7V57.8
		C476.1,46.4,466.8,37.1,455.4,37.1z M326.8,147c-10.1,10.3-22.9,15.5-38.2,15.5c-9.5,0-18.6-2.1-27.2-6.4
		c-8.6-4.3-15.2-10.6-19.7-18.9s-6.7-18.4-6.7-30.3c0-9.1,2.2-17.9,6.7-26.5c4.5-8.5,10.9-15,19.1-19.5c8.2-4.5,17.4-6.7,27.6-6.7
		c15.7,0,28.5,5.1,38.6,15.3c10,10.2,15,23.1,15,38.6C342,123.7,336.9,136.7,326.8,147z M446.5,147c-10.1,10.3-22.9,15.5-38.2,15.5
		c-9.5,0-18.6-2.1-27.2-6.4c-8.6-4.3-15.2-10.6-19.7-18.9s-6.7-18.4-6.7-30.3c0-9.1,2.2-17.9,6.7-26.5c4.5-8.5,10.9-15,19.1-19.5
		c8.2-4.5,17.4-6.7,27.6-6.7c15.7,0,28.5,5.1,38.6,15.3c10,10.2,15,23.1,15,38.6C461.6,123.7,456.6,136.7,446.5,147z"/>
</g>
<path class="st0" d="M516.1,88.1l-24.9-4.5c2.8-10,7.6-17.4,14.5-22.3c6.8-4.8,17-7.2,30.5-7.2c12.2,0,21.4,1.4,27.3,4.3
	c6,2.9,10.2,6.6,12.6,11c2.4,4.5,3.7,12.6,3.7,24.6l-0.3,32c0,9.1,0.4,15.8,1.3,20.2c0.9,4.3,2.5,9,4.9,13.9h-27.1
	c-0.7-1.8-1.6-4.5-2.6-8.1c-0.5-1.6-0.8-2.7-1-3.2c-4.7,4.6-9.7,8-15,10.3c-5.3,2.3-11,3.4-17.1,3.4c-10.7,0-19.1-2.9-25.2-8.7
	c-6.2-5.8-9.2-13.1-9.2-22c0-5.9,1.4-11.1,4.2-15.7c2.8-4.6,6.7-8.1,11.8-10.5c5-2.4,12.3-4.6,21.8-6.4c12.8-2.4,21.7-4.7,26.7-6.7
	v-2.7c0-5.3-1.3-9-3.9-11.3c-2.6-2.2-7.5-3.4-14.7-3.4c-4.9,0-8.7,1-11.4,2.9C520,79.9,517.8,83.3,516.1,88.1z M552.8,110.4
	c-3.5,1.2-9.1,2.6-16.7,4.2c-7.6,1.6-12.6,3.2-14.9,4.8c-3.6,2.5-5.4,5.8-5.4,9.7c0,3.8,1.4,7.2,4.3,10c2.9,2.8,6.5,4.2,10.9,4.2
	c4.9,0,9.7-1.6,14.2-4.9c3.3-2.5,5.5-5.5,6.5-9.1c0.7-2.3,1.1-6.8,1.1-13.4V110.4z"/>
<path class="st0" d="M623.6,17v52.6c8.9-10.4,19.4-15.5,31.7-15.5c6.3,0,12,1.2,17.1,3.5s8.9,5.3,11.5,9c2.6,3.6,4.3,7.7,5.3,12.1
	c0.9,4.4,1.4,11.3,1.4,20.6v60.8h-27.4v-54.8c0-10.9-0.5-17.8-1.6-20.7c-1-2.9-2.9-5.3-5.5-7c-2.6-1.7-5.9-2.6-9.9-2.6
	c-4.6,0-8.6,1.1-12.2,3.3c-3.6,2.2-6.2,5.6-7.9,10c-1.7,4.5-2.5,11.1-2.5,19.8v52h-27.4V17H623.6z"/>
<path class="st0" d="M729.2,88.1l-24.9-4.5c2.8-10,7.6-17.4,14.5-22.3c6.8-4.8,17-7.2,30.5-7.2c12.2,0,21.4,1.4,27.3,4.3
	c6,2.9,10.2,6.6,12.6,11c2.4,4.5,3.7,12.6,3.7,24.6l-0.3,32c0,9.1,0.4,15.8,1.3,20.2c0.9,4.3,2.5,9,4.9,13.9h-27.1
	c-0.7-1.8-1.6-4.5-2.6-8.1c-0.5-1.6-0.8-2.7-1-3.2c-4.7,4.6-9.7,8-15,10.3c-5.3,2.3-11,3.4-17.1,3.4c-10.7,0-19.1-2.9-25.2-8.7
	c-6.2-5.8-9.2-13.1-9.2-22c0-5.9,1.4-11.1,4.2-15.7c2.8-4.6,6.7-8.1,11.8-10.5c5-2.4,12.3-4.6,21.8-6.4c12.8-2.4,21.7-4.7,26.7-6.7
	v-2.7c0-5.3-1.3-9-3.9-11.3c-2.6-2.2-7.5-3.4-14.7-3.4c-4.9,0-8.7,1-11.4,2.9C733.1,79.9,730.9,83.3,729.2,88.1z M765.9,110.4
	c-3.5,1.2-9.1,2.6-16.7,4.2c-7.6,1.6-12.6,3.2-14.9,4.8c-3.6,2.5-5.4,5.8-5.4,9.7c0,3.8,1.4,7.2,4.3,10c2.9,2.8,6.5,4.2,10.9,4.2
	c4.9,0,9.7-1.6,14.2-4.9c3.3-2.5,5.5-5.5,6.5-9.1c0.7-2.3,1.1-6.8,1.1-13.4V110.4z"/>
<path class="st0" d="M904.8,160.2h-27.4v-52.9c0-11.2-0.6-18.4-1.8-21.7c-1.2-3.3-3.1-5.8-5.7-7.7c-2.6-1.8-5.8-2.7-9.5-2.7
	c-4.8,0-9,1.3-12.8,3.9c-3.8,2.6-6.4,6.1-7.8,10.4c-1.4,4.3-2.1,12.2-2.1,23.8v47h-27.4V56.4h25.5v15.2c9-11.7,20.4-17.6,34.2-17.6
	c6.1,0,11.6,1.1,16.6,3.3c5,2.2,8.8,5,11.4,8.3c2.6,3.4,4.4,7.2,5.4,11.5c1,4.3,1.5,10.4,1.5,18.5V160.2z"/>
<g>
</g>
<g>
</g>
<g>
</g>
<g>
</g>
<g>
</g>
<g>
</g>
</svg>
