<?xml version="1.0" encoding="utf-8"?>
<!-- Generator: Adobe Illustrator 22.1.0, SVG Export Plug-In . SVG Version: 6.00 Build 0)  -->
<svg version="1.1" id="레이어_1" xmlns="http://www.w3.org/2000/svg" xmlns:xlink="http://www.w3.org/1999/xlink" x="0px"
	 y="0px" viewBox="0 0 20 20" width="20px" height="20px" style="enable-background:new 0 0 20 20;" xml:space="preserve">
<style type="text/css">
	.st0{fill:#179BD7;}
	.st1{fill:#FFFFFF;}
</style>
<g>
	<path class="st0" d="M0.1,4.7v8.2c0,0.9,0.7,1.6,1.6,1.6h8.1l4.1,2.3c0,0,0.1,0,0.1,0c0.1,0,0.1-0.1,0.1-0.1l-0.8-2.2H16
		c0,0,2.3,0,2.3,0c0.9,0,1.6-0.7,1.6-1.6V4.7c0-0.9-0.7-1.6-1.6-1.6H1.7C0.8,3.1,0.1,3.8,0.1,4.7z"/>
	<path class="st1" d="M1.1,8.6c0-0.7,0.2-1.4,0.5-2.1C2,5.8,2.5,5.3,3.1,5c0.6-0.3,1.4-0.5,2.1-0.5c1.2,0,2.2,0.4,3,1.2
		c0.8,0.8,1.2,1.8,1.2,3c0,1.2-0.4,2.2-1.2,3c-0.8,0.8-1.8,1.2-3,1.2c-0.7,0-1.4-0.2-2.1-0.5c-0.7-0.3-1.2-0.8-1.5-1.5
		S1.1,9.5,1.1,8.6z M3.3,8.7c0,0.8,0.2,1.4,0.6,1.8s0.8,0.6,1.4,0.6c0.6,0,1-0.2,1.4-0.6c0.4-0.4,0.6-1,0.6-1.9
		c0-0.8-0.2-1.4-0.6-1.8C6.3,6.4,5.9,6.2,5.3,6.2c-0.6,0-1,0.2-1.4,0.6C3.5,7.3,3.3,7.9,3.3,8.7z"/>
	<path class="st1" d="M10.5,8.6c0-0.7,0.2-1.4,0.5-2.1c0.3-0.7,0.8-1.2,1.5-1.5c0.6-0.3,1.4-0.5,2.1-0.5c1.2,0,2.2,0.4,3,1.2
		c0.8,0.8,1.2,1.8,1.2,3c0,1.2-0.4,2.2-1.2,3c-0.8,0.8-1.8,1.2-3,1.2c-0.7,0-1.4-0.2-2.1-0.5c-0.7-0.3-1.2-0.8-1.5-1.5
		C10.6,10.3,10.5,9.5,10.5,8.6z M12.6,8.7c0,0.8,0.2,1.4,0.6,1.8s0.8,0.6,1.4,0.6c0.6,0,1-0.2,1.4-0.6c0.4-0.4,0.6-1,0.6-1.9
		c0-0.8-0.2-1.4-0.6-1.8c-0.4-0.4-0.8-0.6-1.4-0.6c-0.6,0-1,0.2-1.4,0.6C12.8,7.3,12.6,7.9,12.6,8.7z"/>
</g>
</svg>
